<!DOCTYPE svg PUBLIC "-//W3C//DTD SVG 1.1//EN" "http://www.w3.org/Graphics/SVG/1.1/DTD/svg11.dtd">
<!-- Uploaded to: SVG Repo, www.svgrepo.com, Transformed by: SVG Repo Mixer Tools -->
<svg width="256px" height="256px" viewBox="-3.84 -3.84 71.68 71.68" version="1.1" xmlns="http://www.w3.org/2000/svg" xmlns:xlink="http://www.w3.org/1999/xlink" xmlns:sketch="http://www.bohemiancoding.com/sketch/ns" fill="#000000" transform="rotate(0)">
<g id="SVGRepo_bgCarrier" stroke-width="0"/>
<g id="SVGRepo_tracerCarrier" stroke-linecap="round" stroke-linejoin="round" stroke="#281a06" stroke-width="0.768"> <title>Triangle-right</title> <desc>Created with Sketch.</desc> <defs> </defs> <g id="Page-1" stroke-width="2.112" fill="none" fill-rule="evenodd" sketch:type="MSPage"> <path d="M1,61 C1,62.1 1.8,63 2.9,63 L43.1,35 C44.7,33.9 45,32.7 45,31.9 L45,31.9 C45,31.9 44.9,30.2 43.1,28.9 L2.9,1 C1.9,1 1,1.9 1,3 L1,61 L1,61 Z" id="Triangle-right" stroke="#fcf4e9" stroke-width="2.112" sketch:type="MSShapeGroup"> </path> </g> </g>
<g id="SVGRepo_iconCarrier"> <title>Triangle-right</title> <desc>Created with Sketch.</desc> <defs> </defs> <g id="Page-1" stroke-width="2.432" fill="none" fill-rule="evenodd" sketch:type="MSPage"> <path d="M1,61 C1,62.1 1.8,63 2.9,63 L43.1,35 C44.7,33.9 45,32.7 45,31.9 L45,31.9 C45,31.9 44.9,30.2 43.1,28.9 L2.9,1 C1.9,1 1,1.9 1,3 L1,61 L1,61 Z" id="Triangle-right" stroke="#fcf4e9" stroke-width="2.432" sketch:type="MSShapeGroup"> </path> </g> </g>
</svg>